<?xml version="1.0" encoding="UTF-8" standalone="no"?>
<svg
   id="Ebene_1"
   viewBox="0 0 678.1225 194.9825"
   version="1.1"
   sodipodi:docname="kioptipack-logo.svg"
   inkscape:version="1.1.2 (0a00cf5339, 2022-02-04)"
   width="678.1225"
   height="194.9825"
   xmlns:inkscape="http://www.inkscape.org/namespaces/inkscape"
   xmlns:sodipodi="http://sodipodi.sourceforge.net/DTD/sodipodi-0.dtd"
   xmlns="http://www.w3.org/2000/svg"
   xmlns:svg="http://www.w3.org/2000/svg">
  <defs
     id="defs27" />
  <sodipodi:namedview
     id="namedview25"
     pagecolor="#ffffff"
     bordercolor="#666666"
     borderopacity="1.0"
     inkscape:pageshadow="2"
     inkscape:pageopacity="0.0"
     inkscape:pagecheckerboard="0"
     showgrid="false"
     inkscape:zoom="1.1013122"
     inkscape:cx="88.984756"
     inkscape:cy="97.156826"
     inkscape:window-width="3840"
     inkscape:window-height="2061"
     inkscape:window-x="1920"
     inkscape:window-y="0"
     inkscape:window-maximized="1"
     inkscape:current-layer="Ebene_1"
     fit-margin-top="0"
     fit-margin-left="0"
     fit-margin-right="0"
     fit-margin-bottom="0" />
  <polygon
     points="418.3,142.39 418.3,115.12 406.33,115.12 406.33,169.75 418.3,169.75 418.3,157.08 428.53,145.36 443.39,169.75 457.46,169.75 437.27,136.71 455.28,115.12 441.73,115.12 "
     id="polygon2"
     transform="translate(-154.8275,-94.2275)" />
  <polygon
     points="487.9,125.26 499.43,125.26 499.43,115.12 464.38,115.12 464.38,125.26 475.92,125.26 475.92,159.61 464.38,159.61 464.38,169.75 499.43,169.75 499.43,159.61 487.9,159.61 "
     id="polygon4"
     transform="translate(-154.8275,-94.2275)" />
  <path
     d="m 251.5025,96.9025 v 43.62 c 8.13,4.81 16.52,6.82 24.91,6.82 8.39,0 16.69,-2.01 24.82,-6.82 v -43.62 c -8.13,-4.81 -16.52,-6.82 -24.82,-6.82 -8.3,0 -16.78,2.01 -24.91,6.82 z m 37.76,36.54 c -4.02,2.18 -8.3,3.06 -12.85,3.06 -4.55,0 -8.92,-0.87 -12.94,-3.06 v -29.46 c 4.02,-2.18 8.3,-3.06 12.94,-3.06 4.64,0 8.83,0.87 12.85,3.06 z"
     id="path6" />
  <path
     d="m 310.3025,91.3925 v 54.63 h 11.98 v -14.07 c 2.36,0.35 4.89,0.44 7.78,0.44 10.49,0 20.37,-2.19 27.97,-6.82 v -28.67 c -7.6,-4.55 -17.48,-6.82 -27.97,-6.82 -7.6,0 -13.72,0.61 -19.75,1.31 z m 36.1,12.76 v 14.16 c -3.93,2.27 -8.13,3.23 -13.46,3.23 -3.41,0 -8.3,-0.09 -10.66,-0.35 v -19.93 c 2.18,-0.17 7.25,-0.35 10.66,-0.35 5.33,0 9.53,0.96 13.46,3.23 z"
     id="path8" />
  <polygon
     points="537.43,240.25 549.32,240.25 549.32,195.85 567.15,195.85 567.15,185.62 519.6,185.62 519.6,195.85 537.43,195.85 "
     id="polygon10"
     transform="translate(-154.8275,-94.2275)" />
  <polygon
     points="584.9,230.11 573.36,230.11 573.36,240.25 608.41,240.25 608.41,230.11 596.87,230.11 596.87,195.76 608.41,195.76 608.41,185.62 573.36,185.62 573.36,195.76 584.9,195.76 "
     id="polygon12"
     transform="translate(-154.8275,-94.2275)" />
  <path
     d="m 461.7025,91.3925 v 54.63 h 11.98 v -14.07 c 2.36,0.35 4.89,0.44 7.78,0.44 10.49,0 20.37,-2.19 27.97,-6.82 v -28.67 c -7.6,-4.55 -17.48,-6.82 -27.97,-6.82 -7.6,0 -13.72,0.61 -19.75,1.31 z m 36.1,12.76 v 14.16 c -3.93,2.27 -8.13,3.23 -13.46,3.23 -3.41,0 -8.3,-0.09 -10.66,-0.35 v -19.93 c 2.18,-0.17 7.25,-0.35 10.66,-0.35 5.33,0 9.53,0.96 13.46,3.23 z"
     id="path14" />
  <path
     d="m 517.9525,96.9025 v 49.12 h 11.89 v -17.13 h 24.65 v 17.13 h 11.8 v -49.12 c -8.04,-4.81 -15.91,-6.82 -24.12,-6.82 -8.21,0 -16.17,2.01 -24.21,6.82 z m 36.54,21.59 h -24.65 v -14.51 c 3.93,-2.1 7.87,-3.06 12.32,-3.06 4.45,0 8.3,0.96 12.32,3.06 v 14.51 z"
     id="path16" />
  <path
     d="m 575.2025,96.9025 v 43.62 c 8.39,4.81 16.52,6.82 24.65,6.82 7.34,0 13.64,-1.14 19.14,-3.23 v -10.93 c -5.42,2.1 -11.97,3.32 -17.66,3.32 -5.07,0 -9.26,-0.87 -13.9,-3.06 v -29.46 c 4.63,-2.18 8.83,-3.06 13.9,-3.06 5.68,0 12.24,1.31 17.66,3.41 v -10.93 c -5.51,-2.1 -11.8,-3.32 -19.14,-3.32 -8.13,0 -16.26,2.01 -24.65,6.82 z"
     id="path18" />
  <polygon
     points="817.22,185.62 793.79,212.89 793.79,185.62 781.82,185.62 781.82,240.25 793.79,240.25 793.79,227.58 804.02,215.87 818.88,240.25 832.95,240.25 812.76,207.21 830.76,185.62 "
     id="polygon20"
     transform="translate(-154.8275,-94.2275)" />
  <path
     d="m 143.0325,91.0725 v -0.02 h -56.84 c 0.86,-0.75 1.7,-1.52 2.52,-2.34 20.27,-20.27 20.27,-53.24 0,-73.51 -20.27,-20.27 -53.24,-20.27 -73.51,0 -20.27,20.27 -20.27,53.24 0,73.51 10.13,10.13 23.44,15.2 36.75,15.2 v 0.02 h 56.83 c -0.86,0.75 -1.7,1.52 -2.52,2.34 -20.27,20.27 -20.27,53.24 0,73.51 10.13,10.13 23.44,15.2 36.75,15.2 13.31,0 26.62,-5.07 36.75,-15.2 20.27,-20.27 20.27,-53.24 0,-73.51 -10.13,-10.13 -23.44,-15.2 -36.75,-15.2 z m -118.71,-11.48 c -15.24,-15.24 -15.24,-40.04 0,-55.29 7.62,-7.62 17.63,-11.43 27.64,-11.43 10.01,0 20.02,3.81 27.64,11.43 15.24,15.24 15.24,40.04 0,55.29 -15.24,15.24 -40.04,15.24 -55.29,0 z m 146.36,91.07 c -15.24,15.24 -40.04,15.24 -55.29,0 -15.24,-15.24 -15.24,-40.04 0,-55.29 7.62,-7.62 17.63,-11.43 27.64,-11.43 10.01,0 20.02,3.81 27.64,11.43 15.24,15.24 15.24,40.04 0,55.29 z"
     id="path22" />
</svg>
